<svg xmlns="http://www.w3.org/2000/svg" version="1.1" viewBox="0 0 850.39 850.39">
  <g>
    <g id="Livello_1">
      <polygon points="425.2 .36 442.16 263.81 513.53 9.64 475.34 270.86 597.99 37.09 506.33 284.66 674.91 81.49 533.78 304.6 740.91 140.92 556.48 329.81 793.12 212.78 573.44 359.19 829.24 293.91 583.93 391.46 847.71 380.79 587.47 425.2 847.71 469.6 583.93 458.94 829.24 556.48 573.44 491.2 793.12 637.62 556.48 520.58 740.91 709.47 533.78 545.79 674.91 768.9 506.33 565.73 597.99 813.31 475.34 579.53 513.53 840.75 442.16 586.58 425.2 850.04 408.23 586.58 336.87 840.75 375.05 579.53 252.4 813.31 344.06 565.73 175.48 768.9 316.61 545.79 109.48 709.47 293.91 520.58 57.27 637.62 276.95 491.2 21.15 556.48 266.47 458.94 2.68 469.6 262.92 425.2 2.68 380.79 266.47 391.46 21.15 293.91 276.95 359.19 57.27 212.78 293.91 329.81 109.48 140.92 316.61 304.6 175.48 81.49 344.06 284.66 252.4 37.09 375.05 270.86 336.87 9.64 408.23 263.81 425.2 .36"/>
    </g>
  </g>
</svg>